<?xml version="1.0" standalone="no"?>
<!DOCTYPE svg PUBLIC "-//W3C//DTD SVG 20010904//EN"
 "http://www.w3.org/TR/2001/REC-SVG-20010904/DTD/svg10.dtd">
<svg version="1.0" xmlns="http://www.w3.org/2000/svg"
 width="700.000000pt" height="700.000000pt" viewBox="0 0 700.000000 700.000000"
 preserveAspectRatio="xMidYMid meet">
<metadata>
Created by potrace 1.11, written by Peter Selinger 2001-2013
</metadata>
<g transform="translate(0.000000,700.000000) scale(0.100000,-0.100000)"
fill="#000000" stroke="none">
<path d="M3298 6996 c-1 -2 -41 -6 -88 -9 -173 -12 -388 -48 -581 -97 -526
-134 -1049 -413 -1450 -772 -237 -213 -423 -427 -597 -689 -254 -383 -439
-833 -518 -1264 -9 -49 -17 -97 -19 -105 -2 -9 -6 -43 -10 -75 -4 -33 -9 -69
-11 -80 -19 -100 -25 -567 -11 -715 8 -79 25 -208 33 -250 2 -14 7 -41 10 -60
3 -19 7 -42 9 -50 2 -8 7 -30 10 -48 3 -18 21 -92 39 -165 235 -911 840 -1697
1666 -2164 251 -141 463 -230 785 -326 112 -34 360 -84 459 -93 33 -3 63 -7
67 -9 29 -18 545 -26 714 -11 152 13 367 46 470 73 33 8 67 16 75 18 100 20
358 107 513 172 117 49 344 162 388 194 15 10 30 19 34 19 27 0 422 286 525
380 121 112 245 237 350 355 165 185 385 525 504 780 149 317 260 690 301
1005 9 73 16 123 21 155 9 56 11 530 3 610 -18 182 -23 222 -34 285 -59 321
-99 465 -202 730 -210 539 -599 1069 -1046 1425 -21 17 -48 38 -60 49 -29 24
-168 124 -217 156 -380 246 -788 416 -1208 505 -98 20 -247 43 -392 60 -55 7
-525 16 -532 11z m507 -660 c358 -44 652 -130 950 -277 148 -73 300 -162 380
-221 184 -138 261 -203 375 -318 101 -101 164 -171 204 -225 17 -22 35 -43 40
-47 6 -4 8 -8 4 -8 -4 0 -53 30 -109 66 -243 159 -590 302 -847 350 -199 37
-307 46 -512 46 -91 0 -178 -3 -195 -6 -16 -2 -59 -7 -95 -11 -293 -27 -480
-165 -573 -422 -34 -93 -67 -250 -75 -353 -16 -216 1 -676 33 -895 2 -16 7
-61 10 -98 4 -37 8 -76 10 -85 1 -9 6 -48 9 -87 8 -80 14 -142 21 -200 2 -22
7 -67 11 -100 3 -33 7 -73 9 -90 13 -99 20 -267 19 -450 -1 -179 -4 -223 -23
-299 -77 -319 -229 -371 -579 -197 -89 44 -287 160 -338 198 -17 13 -36 23
-42 23 -7 0 -12 4 -12 8 0 5 -10 14 -22 19 -13 6 -147 98 -298 203 -647 454
-928 621 -1155 690 -86 26 -120 32 -179 31 -66 -1 -91 -6 -139 -30 l-40 -20 7
127 c3 70 8 136 10 147 2 11 7 47 10 80 4 33 9 67 11 75 2 8 6 31 9 50 10 61
16 88 46 205 27 105 87 292 110 340 5 11 25 58 45 105 156 362 439 742 751
1005 130 110 207 167 336 248 312 195 660 331 1004 391 49 9 100 18 113 21 13
2 63 7 110 11 47 4 88 8 91 11 6 5 446 -4 505 -11z"/>
</g>
</svg>
