<?xml version="1.0" standalone="no"?>
<!DOCTYPE svg PUBLIC "-//W3C//DTD SVG 20010904//EN"
 "http://www.w3.org/TR/2001/REC-SVG-20010904/DTD/svg10.dtd">
<svg version="1.0" xmlns="http://www.w3.org/2000/svg"
 width="1000.000000pt" height="1000.000000pt" viewBox="0 0 1000.000000 1000.000000"
 preserveAspectRatio="xMidYMid meet">
<metadata>
Created by potrace 1.11, written by Peter Selinger 2001-2013
</metadata>
<g transform="translate(0.000000,1000.000000) scale(0.100000,-0.100000)"
fill="#000000" stroke="none">
<path d="M4738 9995 c-1 -1 -52 -6 -113 -9 -60 -4 -119 -9 -130 -11 -11 -2
-46 -7 -79 -10 -57 -6 -341 -50 -381 -59 -11 -2 -53 -12 -93 -20 -849 -183
-1656 -598 -2301 -1184 -149 -135 -316 -306 -426 -436 -27 -32 -55 -64 -60
-70 -69 -74 -326 -429 -391 -541 -6 -11 -42 -69 -78 -130 -64 -105 -202 -373
-258 -500 -139 -314 -291 -798 -333 -1055 -3 -19 -10 -55 -15 -80 -5 -25 -12
-63 -15 -85 -3 -22 -10 -67 -15 -100 -5 -33 -12 -87 -15 -120 -4 -33 -8 -71
-11 -85 -25 -157 -25 -794 1 -1005 2 -16 6 -50 9 -75 12 -101 18 -146 22 -165
2 -11 7 -42 10 -70 4 -27 8 -53 10 -56 2 -4 6 -24 9 -45 11 -70 76 -346 112
-469 231 -804 670 -1550 1254 -2134 96 -96 144 -142 264 -251 120 -109 375
-300 564 -424 332 -217 751 -419 1144 -550 116 -39 424 -124 507 -140 14 -3
36 -7 50 -10 14 -3 50 -10 80 -16 30 -6 66 -12 80 -15 49 -10 296 -44 361 -50
36 -4 86 -9 110 -11 78 -9 631 -11 724 -3 182 16 219 20 284 29 36 5 93 12
126 16 33 3 62 8 65 9 3 2 26 6 50 10 235 34 745 176 965 270 17 7 55 23 85
35 168 68 404 183 578 284 122 70 390 241 402 256 3 3 21 17 40 30 35 24 245
185 266 205 6 5 40 35 75 65 317 272 630 625 870 980 67 98 71 104 176 280
136 226 319 624 411 895 56 165 135 445 158 560 46 232 68 371 80 490 3 39 8
72 9 75 10 17 20 285 20 515 -1 242 -6 362 -20 493 -3 23 -7 59 -9 80 -3 22
-7 54 -10 73 -6 39 -15 97 -22 149 -2 19 -6 42 -9 50 -2 8 -7 31 -10 50 -12
73 -37 189 -66 305 -161 638 -431 1213 -821 1745 -46 63 -91 124 -100 135 -9
11 -45 54 -79 95 -304 369 -682 709 -1094 982 -288 190 -654 380 -945 488 -47
17 -94 35 -105 40 -11 5 -60 22 -110 39 -286 94 -592 168 -860 206 -11 2 -33
6 -50 8 -16 3 -81 11 -143 17 -63 7 -133 14 -155 16 -48 6 -643 14 -649 9z
m519 -199 c70 -4 142 -8 158 -10 17 -2 64 -7 105 -11 41 -4 82 -9 91 -10 9 -2
40 -6 70 -10 30 -4 77 -11 104 -16 28 -5 66 -12 85 -15 29 -5 72 -14 191 -39
518 -111 1102 -359 1574 -670 388 -255 748 -574 1022 -902 54 -65 100 -120
103 -123 22 -22 228 -306 255 -352 6 -9 38 -61 71 -115 198 -317 366 -680 480
-1033 33 -103 98 -330 108 -380 3 -14 16 -77 29 -140 32 -149 46 -237 63 -375
3 -27 8 -61 9 -75 2 -14 7 -68 11 -120 3 -52 9 -99 12 -104 3 -5 0 -6 -6 -2
-6 3 -13 21 -17 39 -3 17 -10 41 -15 52 -4 11 -23 63 -41 115 -120 349 -338
753 -587 1085 -74 99 -88 116 -180 225 -178 210 -484 497 -662 620 -19 13 -37
27 -40 30 -3 3 -52 37 -110 76 -286 193 -611 350 -935 454 -104 33 -305 84
-372 94 -21 4 -45 8 -53 11 -8 2 -35 6 -60 9 -25 4 -56 8 -70 11 -224 41 -752
41 -999 0 -14 -2 -46 -7 -70 -10 -68 -10 -207 -53 -264 -81 -230 -117 -388
-335 -467 -645 -23 -91 -23 -89 -40 -196 -17 -104 -18 -116 -26 -243 -13 -193
-7 -592 11 -785 2 -22 6 -74 9 -115 4 -41 9 -97 11 -125 3 -27 8 -72 10 -100
14 -132 16 -152 20 -185 2 -19 7 -57 10 -85 3 -27 7 -66 10 -85 2 -19 7 -66
10 -103 4 -37 8 -76 10 -85 1 -9 6 -51 10 -92 4 -41 8 -77 10 -80 2 -3 6 -45
10 -93 3 -48 8 -96 10 -105 1 -9 6 -55 10 -102 3 -47 8 -101 10 -120 21 -196
28 -671 12 -800 -35 -287 -126 -484 -254 -550 -126 -65 -312 -31 -598 110
-130 64 -158 80 -225 121 -14 9 -54 33 -90 54 -73 43 -389 251 -521 343 -47
32 -204 142 -350 244 -385 270 -864 588 -883 588 -3 0 -39 20 -81 45 -281 167
-567 273 -753 281 -235 10 -359 -90 -446 -362 -15 -45 -28 -90 -30 -100 -2
-11 -11 -46 -19 -79 -9 -33 -18 -78 -22 -100 -3 -23 -8 -52 -11 -65 -11 -50
-14 -347 -4 -435 27 -230 86 -428 195 -650 214 -436 599 -851 1110 -1196 128
-87 290 -189 300 -189 2 0 37 -20 77 -44 88 -52 360 -187 473 -235 85 -37 157
-67 190 -82 114 -49 392 -144 635 -215 79 -24 379 -100 426 -108 11 -2 68 -13
125 -25 57 -11 118 -23 134 -26 17 -2 41 -7 55 -10 55 -11 165 -26 285 -41 17
-2 48 -6 70 -8 100 -13 215 -23 365 -33 224 -15 770 -8 935 12 17 2 59 6 95
10 102 10 153 16 180 21 14 2 43 7 65 9 56 8 152 24 205 35 25 5 56 12 70 14
124 22 377 88 530 139 52 17 97 32 100 32 46 8 329 124 485 199 213 102 497
270 615 363 8 6 47 35 85 64 277 207 588 528 780 804 27 39 53 75 58 80 20 21
-147 -293 -184 -347 -11 -14 -19 -29 -19 -33 0 -5 -144 -225 -207 -315 -53
-77 -200 -262 -292 -369 -53 -61 -336 -348 -396 -401 -91 -81 -276 -231 -355
-290 -97 -72 -343 -235 -410 -272 -25 -14 -74 -42 -110 -63 -243 -139 -613
-298 -905 -389 -94 -29 -289 -83 -325 -90 -14 -2 -66 -14 -117 -25 -80 -18
-232 -45 -316 -56 -15 -2 -44 -6 -65 -9 -170 -23 -421 -39 -617 -39 -105 0
-358 11 -410 17 -16 2 -59 7 -95 10 -145 15 -357 49 -500 81 -14 3 -34 7 -45
9 -116 22 -498 133 -570 166 -11 4 -69 27 -129 50 -200 75 -514 229 -706 345
-69 42 -134 81 -145 88 -11 7 -22 14 -25 17 -3 3 -32 23 -65 44 -90 59 -278
201 -385 290 -280 235 -532 501 -748 786 -40 52 -76 100 -80 105 -4 6 -46 69
-94 140 -302 460 -513 932 -647 1450 -42 163 -96 429 -106 526 -2 23 -6 49 -9
58 -2 9 -7 50 -11 91 -3 41 -8 89 -10 105 -22 179 -22 671 0 850 2 17 7 61 10
98 4 38 8 76 10 85 1 9 6 40 9 67 4 28 8 61 11 75 3 14 7 41 10 60 37 225 105
492 187 735 93 279 274 670 428 925 73 120 273 417 290 430 3 3 19 23 35 45
85 116 228 276 405 455 170 171 234 227 522 455 40 32 270 187 353 237 503
307 1040 515 1605 624 41 8 85 16 96 18 24 5 66 11 139 22 28 3 59 8 70 10 11
2 56 7 100 10 44 3 82 8 85 9 3 2 77 7 165 10 88 4 161 8 162 9 4 3 226 -2
350 -8z"/>
</g>
</svg>
